<?xml version="1.0" encoding="utf-8"?>
<!-- Generator: Adobe Illustrator 23.1.1, SVG Export Plug-In . SVG Version: 6.00 Build 0)  -->
<svg version="1.1" id="Layer_1" xmlns="http://www.w3.org/2000/svg" xmlns:xlink="http://www.w3.org/1999/xlink" x="0px" y="0px"
	 viewBox="0 0 399.2 192.4" style="enable-background:new 0 0 399.2 192.4;" xml:space="preserve">
<style type="text/css">
	.st0{fill:#FFFFFF;}
</style>
<title>1Asset 2</title>
<g>
	<g id="Layer_1-2">
		<path class="st0" d="M0,96.2c0-27.3,0-54.7,0-82C0,3.7,3.7,0,14.1,0c25.4,0,50.8,0,76.2,0c10.2,0,13.9,3.8,14,13.8
			c0,5.1-0.1,10.2,0,15.3c0.2,7,4.5,11.4,10.8,11.4c6.5,0,11-4.5,11.2-11.5c0.2-5.3,0-10.5,0-15.8c0.1-9.2,4-13.2,13.2-13.2
			c15.8,0,31.5,0,47.3,0c10.2,0,20.4,0,30.7,0c9,0.1,13.1,4,13.1,12.9c0,55.6,0,111.2,0,166.8c0,8.8-3.9,12.6-12.7,12.7
			c-12,0.1-24.1,0.1-36.1,0c-9.5,0-13.4-3.9-13.4-13.5c0-35.8,0-71.5,0-107.3c0-7.2-2.1-10.6-7.4-12.4c-5.6-2-11.7,0.9-13.7,6.5
			c-0.3,0.9-0.5,1.9-0.6,2.8c-0.2,1.8-0.1,3.6-0.1,5.4c0,34.9,0,69.7,0,104.6c0,9.9-3.9,13.9-13.9,13.9c-11.7,0-23.4,0.1-35.2,0
			c-9.3-0.1-13.2-3.9-13.2-13.2c0-35.9,0-71.8,0-107.8c0-4.7-1-8.7-5.2-11.2c-7.4-4.6-16.5,0.4-16.6,9.3
			c-0.2,15.8-0.1,31.6-0.1,47.3c0,20.4,0,40.9,0,61.3c0,10.4-3.7,14.2-14.1,14.2c-11.7,0-23.5,0.1-35.2,0c-9.4,0-13.1-3.8-13.1-13.2
			C0,151.5,0,123.8,0,96.2z"/>
		<path class="st0" d="M252.8,96.1c0-27.5,0-55,0-82.5c0-9.7,3.9-13.6,13.7-13.6c11.7,0,23.4,0,35.2,0c9.4,0,13.4,4.1,13.4,13.5
			c0,15,0,30.1,0,45.1c0,6.3,3.8,10.5,9.5,11.3c5.3,0.7,10.3-2.6,11.8-7.7c0.4-1.9,0.6-3.9,0.5-5.8c0-14.3,0-28.5,0-42.8
			c0-9.5,4-13.5,13.4-13.5c11.9,0,23.8,0,35.7,0c9.2,0,13.3,4,13.3,13.1c0,55.4,0,110.9,0,166.3c0,9-3.9,12.9-13,12.9
			c-12,0.1-24,0.1-36.1,0c-9.5-0.1-13.2-4-13.3-13.6c0-14.7,0-29.4,0-44.2c0-6.5-3.4-11-8.7-12c-7.1-1.4-13,3.5-13,11.2
			c-0.1,15,0,30,0,45.1c0,9.8-3.8,13.6-13.7,13.6c-11.7,0-23.5,0-35.2,0c-9.6,0-13.4-3.8-13.4-13.4
			C252.8,151.4,252.8,123.7,252.8,96.1z"/>
	</g>
</g>
</svg>
