<svg xmlns="http://www.w3.org/2000/svg" viewBox="0 0 1573.69 140.7"><defs><style>.cls-1{fill:#3d5a80;}</style></defs><title>1Asset 1</title><g id="Layer_2" data-name="Layer 2"><g id="Layer_1-2" data-name="Layer 1"><path class="cls-1" d="M8.1,140.7H37.4a7.94,7.94,0,0,0,8.1-8.1v-36a8.2,8.2,0,0,1,8.1-8.1H94.9c22.3,0,38.5-16.2,38.5-38.5V38.6C133.4,16.3,117.2.1,94.9.1H8.1A7.94,7.94,0,0,0,0,8.2V132.6A7.94,7.94,0,0,0,8.1,140.7ZM53.4,52.2a8,8,0,0,1,0-16H79.8a8,8,0,1,1,0,16Z"/><path class="cls-1" d="M157.62,140.7h29.3a8.11,8.11,0,0,0,8.1-8.3V96a7.85,7.85,0,0,1,7.9-7.9h26.4a7.9,7.9,0,0,1,8.1,7.9v36.5a7.94,7.94,0,0,0,8.1,8.1h29.3a8.11,8.11,0,0,0,8.1-8.3V92.6c0-8.4-6-14.4-14.4-14.4h-1.6a8,8,0,0,1,0-16H268a14.45,14.45,0,0,0,14.9-14.9V32.2c0-18.6-13.5-32.1-32.1-32.1h-93.1a7.94,7.94,0,0,0-8.1,8.1V132.6A7.8,7.8,0,0,0,157.62,140.7Zm45.3-88.2a7.9,7.9,0,1,1,0-15.8h26.4a7.9,7.9,0,1,1,0,15.8Z"/><path class="cls-1" d="M338.33,140.7h28.3c22.8,0,39.3-16.7,39.3-39.5V39.5c0-22.8-16.5-39.3-39.3-39.3h-28.3C315.53.2,299,16.7,299,39.5v61.7C298.93,124,315.53,140.7,338.33,140.7Zm14-36.2a7.85,7.85,0,0,1-7.9-7.9V44.3a8,8,0,1,1,16,0V96.6A7.9,7.9,0,0,1,352.33,104.5Z"/><path class="cls-1" d="M430.19,140.7H481c22.8,0,39.3-16.7,39.3-39.5V8.3a7.94,7.94,0,0,0-8.1-8.1h-29.3a7.94,7.94,0,0,0-8.1,8.1V93.1a7.9,7.9,0,0,1-8.1,7.9h-36.5a7.94,7.94,0,0,0-8.1,8.1v23.4A8.09,8.09,0,0,0,430.19,140.7Z"/><path class="cls-1" d="M544.55,140.7h117.3a7.94,7.94,0,0,0,8.1-8.1V111.7a7.94,7.94,0,0,0-8.1-8.1h-72a7.85,7.85,0,0,1-7.9-7.9,8,8,0,0,1,7.9-8.1h65a7.94,7.94,0,0,0,8.1-8.1V61.1a7.94,7.94,0,0,0-8.1-8.1h-65a8,8,0,0,1,0-16h72a7.94,7.94,0,0,0,8.1-8.1V8.2a7.94,7.94,0,0,0-8.1-8.1H544.55a7.94,7.94,0,0,0-8.1,8.1V132.6A7.94,7.94,0,0,0,544.55,140.7Z"/><path class="cls-1" d="M725.5,140.7h85.9a8.11,8.11,0,0,0,8.1-8.3V109a7.94,7.94,0,0,0-8.1-8.1H739.6a7.85,7.85,0,0,1-7.9-7.9V47.7a7.9,7.9,0,0,1,7.9-8.1h71.8a7.94,7.94,0,0,0,8.1-8.1V8.1A7.94,7.94,0,0,0,811.4,0H725.5c-22.8,0-39.3,16.5-39.3,39.3V101C686.1,124,702.7,140.7,725.5,140.7Z"/><path class="cls-1" d="M876.22,140.7h29.7c4.9,0,7.9-3,7.9-8.1v-85a8,8,0,0,1,8.1-7.9h16.7c4.9,0,7.9-3,7.9-7.9V8.1c0-4.9-3-7.9-7.9-7.9l-95-.2c-5.1,0-7.9,3-7.9,7.9V31.8c0,4.9,3,7.9,7.9,7.9h16.5a8.07,8.07,0,0,1,8.3,7.9v85C868.32,137.7,871.32,140.7,876.22,140.7Z"/><path class="cls-1" d="M1026.2,140.7h29.4a8.11,8.11,0,0,0,8.1-8.3V96a7.85,7.85,0,0,1,7.9-7.9H1098a7.9,7.9,0,0,1,8.1,7.9v36.5a7.94,7.94,0,0,0,8.1,8.1h29.3a8.11,8.11,0,0,0,8.1-8.3V92.6c0-8.4-6-14.4-14.4-14.4h-1.6a8,8,0,0,1,0-16h1.1a14.45,14.45,0,0,0,14.9-14.9V32.2c0-18.6-13.5-32.1-32.1-32.1h-93.1a7.94,7.94,0,0,0-8.1,8.1V132.6A7.72,7.72,0,0,0,1026.2,140.7Zm45.3-88.2a7.9,7.9,0,0,1,0-15.8h26.4a7.9,7.9,0,1,1,0,15.8Z"/><path class="cls-1" d="M1175.72,140.7h86.8c22.3,0,38.5-16.3,38.5-38.6V90.7c0-22.3-16.2-38.5-38.5-38.5H1221a8,8,0,0,1,0-16h71.8a7.94,7.94,0,0,0,8.1-8.1V8.3a7.94,7.94,0,0,0-8.1-8.1H1206c-22.3,0-38.5,16.2-38.5,38.5V50.1c0,22.3,16.2,38.5,38.5,38.5h41.3a8.07,8.07,0,0,1,8.1,8.1,7.9,7.9,0,0,1-8.1,7.9h-71.6a7.94,7.94,0,0,0-8.1,8.1v20A7.92,7.92,0,0,0,1175.72,140.7Z"/><path class="cls-1" d="M1325.23,140.7h29.3a7.94,7.94,0,0,0,8.1-8.1V109.9a7.9,7.9,0,0,1,7.9-8.1,8.07,8.07,0,0,1,8.1,8.1v22.7a7.94,7.94,0,0,0,8.1,8.1H1416a7.94,7.94,0,0,0,8.1-8.1V39.5c0-22.8-16.5-39.3-39.3-39.3h-28.3c-22.8,0-39.3,16.5-39.3,39.3v93.1A7.8,7.8,0,0,0,1325.23,140.7Zm45.3-71.5a7.85,7.85,0,0,1-7.9-7.9V45.1a8,8,0,1,1,16,0V61.3A7.9,7.9,0,0,1,1370.53,69.2Z"/><path class="cls-1" d="M1448.39,140.7h86.8c22.3,0,38.5-16.3,38.5-38.6V90.7c0-22.3-16.2-38.5-38.5-38.5h-41.5a8,8,0,0,1,0-16h71.8a7.94,7.94,0,0,0,8.1-8.1V8.3a7.94,7.94,0,0,0-8.1-8.1h-86.8c-22.3,0-38.5,16.2-38.5,38.5V50.1c0,22.3,16.2,38.5,38.5,38.5H1520a8.07,8.07,0,0,1,8.1,8.1,7.9,7.9,0,0,1-8.1,7.9h-71.7a7.94,7.94,0,0,0-8.1,8.1v20A8.07,8.07,0,0,0,1448.39,140.7Z"/></g></g></svg>